<?xml version="1.0" encoding="UTF-8"?>
<!DOCTYPE svg PUBLIC "-//W3C//DTD SVG 1.1//EN" "http://www.w3.org/Graphics/SVG/1.1/DTD/svg11.dtd">
<svg xmlns="http://www.w3.org/2000/svg" version="1.1" width="790px" height="191px" style="shape-rendering:geometricPrecision; text-rendering:geometricPrecision; image-rendering:optimizeQuality; fill-rule:evenodd; clip-rule:evenodd" xmlns:xlink="http://www.w3.org/1999/xlink">
<g><path style="opacity:1" fill="#fdfdfd" d="M -0.5,-0.5 C 262.833,-0.5 526.167,-0.5 789.5,-0.5C 789.5,63.1667 789.5,126.833 789.5,190.5C 727.5,190.5 665.5,190.5 603.5,190.5C 612.078,188.592 618.745,183.926 623.5,176.5C 649.835,176.667 676.169,176.5 702.5,176C 726.421,170.509 750.421,166.675 774.5,164.5C 776.136,163.251 777.303,161.584 778,159.5C 778.667,155.5 778.667,151.5 778,147.5C 776.491,145.081 774.325,144.081 771.5,144.5C 771.5,143.5 771.5,142.5 771.5,141.5C 771.298,139.05 771.631,136.717 772.5,134.5C 773.483,130.702 773.817,126.702 773.5,122.5C 777.371,122.815 781.038,122.482 784.5,121.5C 785.117,121.389 785.617,121.056 786,120.5C 786.499,115.511 786.666,110.511 786.5,105.5C 786.664,102.813 786.497,100.146 786,97.5C 784.133,94.8975 782.633,92.0641 781.5,89C 779.888,88.2797 778.388,88.4464 777,89.5C 775.892,93.0863 775.392,96.753 775.5,100.5C 774.677,103.977 774.177,107.644 774,111.5C 773.819,108.305 773.319,105.305 772.5,102.5C 768.962,71.168 757.629,43.0013 738.5,18C 737.167,17.3333 735.833,16.6667 734.5,16C 724.991,15.8299 715.658,15.3299 706.5,14.5C 697.712,12.9698 688.712,12.3032 679.5,12.5C 663.167,12.5 646.833,12.5 630.5,12.5C 584.664,12.8321 538.997,12.4988 493.5,11.5C 491.88,9.01583 489.547,7.51583 486.5,7C 477.759,5.31476 469.092,3.31476 460.5,1C 418.833,0.333333 377.167,0.333333 335.5,1C 331.759,4.51593 328.092,8.01593 324.5,11.5C 324.167,11.5 323.833,11.5 323.5,11.5C 225.167,11.5 126.833,11.5 28.5,11.5C 28.8226,7.77395 28.4892,4.10728 27.5,0.5C 22.1518,2.83483 19.1518,6.83483 18.5,12.5C 16.9731,12.427 15.9731,13.0937 15.5,14.5C 14.2101,15.0577 13.3768,16.0577 13,17.5C 12.2786,24.8226 11.7786,32.1559 11.5,39.5C 10.3428,49.3196 9.50947,59.3196 9,69.5C 8.50003,93.8311 8.33336,118.164 8.5,142.5C 7.57799,144.816 5.91132,146.483 3.5,147.5C 2.51283,152.305 2.17949,157.305 2.5,162.5C 7.5,162.5 12.5,162.5 17.5,162.5C 29.2641,164.879 41.2641,166.546 53.5,167.5C 54.5676,168.434 55.901,168.768 57.5,168.5C 63.4888,169.26 69.4888,169.927 75.5,170.5C 78.2869,171.477 81.2869,171.81 84.5,171.5C 116.052,175.11 147.718,176.443 179.5,175.5C 183.696,182.699 189.696,187.699 197.5,190.5C 131.5,190.5 65.5,190.5 -0.5,190.5C -0.5,126.833 -0.5,63.1667 -0.5,-0.5 Z"/></g>
<g><path style="opacity:1" fill="#a7a6a6" d="M 493.5,11.5 C 437.167,12.8333 380.833,12.8333 324.5,11.5C 328.092,8.01593 331.759,4.51593 335.5,1C 377.167,0.333333 418.833,0.333333 460.5,1C 469.092,3.31476 477.759,5.31476 486.5,7C 489.547,7.51583 491.88,9.01583 493.5,11.5 Z"/></g>
<g><path style="opacity:1" fill="#fbfbfb" d="M 336.5,1.5 C 375.168,1.33335 413.835,1.50001 452.5,2C 465.856,3.58958 478.856,6.58958 491.5,11C 436.5,11.6667 381.5,11.6667 326.5,11C 330.334,8.33183 333.667,5.16516 336.5,1.5 Z"/></g>
<g><path style="opacity:1" fill="#b2b2b3" d="M 323.5,11.5 C 296.005,12.4979 268.338,12.8313 240.5,12.5C 225.5,12.5 210.5,12.5 195.5,12.5C 139.167,12.5 82.8333,12.5 26.5,12.5C 27.58,9.25694 27.7466,5.92361 27,2.5C 26,3.16667 25,3.83333 24,4.5C 23.5026,7.14603 23.3359,9.8127 23.5,12.5C 21.8333,12.5 20.1667,12.5 18.5,12.5C 19.1518,6.83483 22.1518,2.83483 27.5,0.5C 28.4892,4.10728 28.8226,7.77395 28.5,11.5C 126.833,11.5 225.167,11.5 323.5,11.5 Z"/></g>
<g><path style="opacity:1" fill="#dadbdc" d="M 26.5,12.5 C 25.5,12.5 24.5,12.5 23.5,12.5C 23.3359,9.8127 23.5026,7.14603 24,4.5C 25,3.83333 26,3.16667 27,2.5C 27.7466,5.92361 27.58,9.25694 26.5,12.5 Z"/></g>
<g><path style="opacity:1" fill="#182233" d="M 18.5,12.5 C 20.1667,12.5 21.8333,12.5 23.5,12.5C 24.5,12.5 25.5,12.5 26.5,12.5C 82.8333,12.5 139.167,12.5 195.5,12.5C 195.5,12.8333 195.5,13.1667 195.5,13.5C 135.458,13.1744 75.4584,13.5077 15.5,14.5C 15.9731,13.0937 16.9731,12.427 18.5,12.5 Z"/></g>
<g><path style="opacity:1" fill="#0e484d" d="M 195.5,12.5 C 210.5,12.5 225.5,12.5 240.5,12.5C 240.5,12.8333 240.5,13.1667 240.5,13.5C 225.657,13.1707 210.99,13.504 196.5,14.5C 195.833,14.5 195.5,14.1667 195.5,13.5C 195.5,13.1667 195.5,12.8333 195.5,12.5 Z"/></g>
<g><path style="opacity:1" fill="#80817e" d="M 323.5,11.5 C 323.833,11.5 324.167,11.5 324.5,11.5C 380.833,12.8333 437.167,12.8333 493.5,11.5C 538.997,12.4988 584.664,12.8321 630.5,12.5C 630.5,12.8333 630.5,13.1667 630.5,13.5C 509.833,13.5 389.167,13.5 268.5,13.5C 259.5,13.5 250.5,13.5 241.5,13.5C 241.167,13.5 240.833,13.5 240.5,13.5C 240.5,13.1667 240.5,12.8333 240.5,12.5C 268.338,12.8313 296.005,12.4979 323.5,11.5 Z"/></g>
<g><path style="opacity:1" fill="#fbfbfb" d="M 268.5,13.5 C 389.167,13.5 509.833,13.5 630.5,13.5C 636.815,22.4758 643.481,31.1425 650.5,39.5C 650.5,64.5 650.5,89.5 650.5,114.5C 643.768,122.295 637.768,130.629 632.5,139.5C 631.5,140.833 630.5,140.833 629.5,139.5C 627.967,135.296 625.3,131.963 621.5,129.5C 617.462,126.316 612.795,124.649 607.5,124.5C 604.713,123.523 601.713,123.19 598.5,123.5C 598.5,121.167 598.5,118.833 598.5,116.5C 611.677,116.829 624.677,116.495 637.5,115.5C 638.492,115.672 639.158,115.338 639.5,114.5C 640.829,89.3301 640.829,63.9968 639.5,38.5C 611.209,37.342 582.876,37.1753 554.5,38C 554,38.5 553.5,39 553,39.5C 552.333,64.1667 552.333,88.8333 553,113.5C 553.708,114.381 554.542,115.047 555.5,115.5C 569.323,116.496 583.323,116.829 597.5,116.5C 597.5,118.833 597.5,121.167 597.5,123.5C 594.287,123.19 591.287,123.523 588.5,124.5C 584.951,124.439 581.618,125.273 578.5,127C 576.676,127.66 575.343,128.827 574.5,130.5C 572.284,131.203 570.451,132.536 569,134.5C 567.476,136.898 565.976,139.231 564.5,141.5C 548.167,141.5 531.833,141.5 515.5,141.5C 515.5,133.167 515.5,124.833 515.5,116.5C 440.833,116.5 366.167,116.5 291.5,116.5C 291.5,124.833 291.5,133.167 291.5,141.5C 284.167,141.5 276.833,141.5 269.5,141.5C 275.167,132.833 280.833,124.167 286.5,115.5C 309.843,115.833 333.176,115.5 356.5,114.5C 357.657,89.5426 357.824,64.5426 357,39.5C 356.5,39 356,38.5 355.5,38C 331.836,37.5 308.169,37.3334 284.5,37.5C 279.585,29.2458 274.251,21.2458 268.5,13.5 Z"/></g>
<g><path style="opacity:1" fill="#a9a9aa" d="M 679.5,12.5 C 688.712,12.3032 697.712,12.9698 706.5,14.5C 697.288,14.6968 688.288,14.0302 679.5,12.5 Z"/></g>
<g><path style="opacity:1" fill="#162c50" d="M 195.5,13.5 C 195.5,14.1667 195.833,14.5 196.5,14.5C 201.92,21.9144 206.92,29.5811 211.5,37.5C 197.484,37.1674 183.484,37.5008 169.5,38.5C 168.344,60.7903 168.178,83.1237 169,105.5C 185.756,106.492 202.589,106.825 219.5,106.5C 215.806,112.517 212.14,118.517 208.5,124.5C 192.695,121.975 181.028,127.641 173.5,141.5C 118.837,142.5 64.1707,142.833 9.5,142.5C 9.12071,108.14 9.78737,73.8067 11.5,39.5C 11.7786,32.1559 12.2786,24.8226 13,17.5C 13.3768,16.0577 14.2101,15.0577 15.5,14.5C 75.4584,13.5077 135.458,13.1744 195.5,13.5 Z"/></g>
<g><path style="opacity:1" fill="#a8d98f" d="M 241.5,13.5 C 250.5,13.5 259.5,13.5 268.5,13.5C 274.251,21.2458 279.585,29.2458 284.5,37.5C 279.786,37.1734 275.12,37.5067 270.5,38.5C 269.549,43.7698 269.215,49.1032 269.5,54.5C 259.428,41.362 250.095,27.6953 241.5,13.5 Z"/></g>
<g><path style="opacity:1" fill="#172c4f" d="M 630.5,12.5 C 646.833,12.5 663.167,12.5 679.5,12.5C 688.288,14.0302 697.288,14.6968 706.5,14.5C 715.658,15.3299 724.991,15.8299 734.5,16C 735.833,16.6667 737.167,17.3333 738.5,18C 757.629,43.0013 768.962,71.168 772.5,102.5C 772.226,107.263 772.559,111.93 773.5,116.5C 771.167,116.5 768.833,116.5 766.5,116.5C 766.5,118.167 766.5,119.833 766.5,121.5C 768.5,121.5 770.5,121.5 772.5,121.5C 772.5,125.833 772.5,130.167 772.5,134.5C 771.631,136.717 771.298,139.05 771.5,141.5C 770.596,142.209 770.263,143.209 770.5,144.5C 759.805,144.212 749.138,143.546 738.5,142.5C 702.988,142.165 667.655,141.165 632.5,139.5C 637.768,130.629 643.768,122.295 650.5,114.5C 650.833,114.5 651.167,114.5 651.5,114.5C 679.5,115.833 707.5,115.833 735.5,114.5C 736.663,89.67 736.83,64.67 736,39.5C 735.5,39 735,38.5 734.5,38C 706.833,37.3333 679.167,37.3333 651.5,38C 650.944,38.3826 650.611,38.8826 650.5,39.5C 643.481,31.1425 636.815,22.4758 630.5,13.5C 630.5,13.1667 630.5,12.8333 630.5,12.5 Z"/></g>
<g><path style="opacity:1" fill="#c0bebc" d="M 371.5,22.5 C 374.833,22.5 378.167,22.5 381.5,22.5C 381.5,24.1667 381.5,25.8333 381.5,27.5C 378.167,27.5 374.833,27.5 371.5,27.5C 371.5,25.8333 371.5,24.1667 371.5,22.5 Z"/></g>
<g><path style="opacity:1" fill="#a9b2bf" d="M 160.5,22.5 C 164.85,20.6537 168.517,21.6537 171.5,25.5C 170.479,25.458 169.479,25.458 168.5,25.5C 166.247,23.4658 163.58,22.4658 160.5,22.5 Z"/></g>
<g><path style="opacity:1" fill="#d69035" d="M 373.5,23.5 C 375.833,23.5 378.167,23.5 380.5,23.5C 380.5,24.5 380.5,25.5 380.5,26.5C 378.167,26.5 375.833,26.5 373.5,26.5C 373.5,25.5 373.5,24.5 373.5,23.5 Z"/></g>
<g><path style="opacity:1" fill="#15838c" d="M 612.5,21.5 C 610.5,24.5 608.5,27.5 606.5,30.5C 601.649,31.1319 599.149,29.1319 599,24.5C 599.833,23.6667 600.667,22.8333 601.5,22C 605.152,21.5014 608.818,21.3347 612.5,21.5 Z"/></g>
<g><path style="opacity:1" fill="#63bc5c" d="M 612.5,21.5 C 617.964,22.266 619.297,24.9327 616.5,29.5C 613.232,30.487 609.898,30.8204 606.5,30.5C 608.5,27.5 610.5,24.5 612.5,21.5 Z"/></g>
<g><path style="opacity:1" fill="#8591a4" d="M 144.5,23.5 C 147.394,23.0423 149.894,23.709 152,25.5C 154.55,23.1613 155.05,23.828 153.5,27.5C 151.675,28.5709 150.508,27.9042 150,25.5C 149.51,26.7932 149.343,28.1266 149.5,29.5C 146.813,29.6641 144.146,29.4974 141.5,29C 141.833,28.6667 142.167,28.3333 142.5,28C 141.692,27.6924 141.025,27.1924 140.5,26.5C 142.332,25.9432 143.665,24.9432 144.5,23.5 Z"/></g>
<g><path style="opacity:1" fill="#f3f4f6" d="M 159.5,22.5 C 159.833,22.5 160.167,22.5 160.5,22.5C 163.58,22.4658 166.247,23.4658 168.5,25.5C 168.672,26.4916 168.338,27.1583 167.5,27.5C 165.473,27.6621 163.473,27.4955 161.5,27C 162.833,26.6667 164.167,26.3333 165.5,26C 163.743,24.2505 161.743,23.0838 159.5,22.5 Z"/></g>
<g><path style="opacity:1" fill="#919cad" d="M 135.5,23.5 C 138.574,24.4212 139.574,26.2545 138.5,29C 136.687,28.9536 135.021,29.1203 133.5,29.5C 134.016,28.2418 133.35,27.2418 131.5,26.5C 133.332,25.9432 134.665,24.9432 135.5,23.5 Z"/></g>
<g><path style="opacity:1" fill="#67758e" d="M 159.5,22.5 C 161.743,23.0838 163.743,24.2505 165.5,26C 164.167,26.3333 162.833,26.6667 161.5,27C 163.473,27.4955 165.473,27.6621 167.5,27.5C 165.369,28.3138 163.036,28.8138 160.5,29C 161.623,30.0437 162.956,30.7104 164.5,31C 160.758,31.7955 158.091,30.4622 156.5,27C 156.899,25.0188 157.899,23.5188 159.5,22.5 Z"/></g>
<g><path style="opacity:1" fill="#359099" d="M 587.5,21.5 C 590.044,21.1043 592.211,21.771 594,23.5C 594.507,24.9961 594.007,26.1627 592.5,27C 593.337,28.0113 593.67,29.1779 593.5,30.5C 591.208,30.7564 589.041,30.4231 587,29.5C 586.289,27.6332 586.789,26.1332 588.5,25C 587.663,23.9887 587.33,22.8221 587.5,21.5 Z"/></g>
<g><path style="opacity:1" fill="#d4a324" d="M 732.5,24.5 C 734.833,24.5 737.167,24.5 739.5,24.5C 739.5,25.5 739.5,26.5 739.5,27.5C 737.473,27.6621 735.473,27.4955 733.5,27C 732.748,26.3292 732.414,25.4959 732.5,24.5 Z"/></g>
<g><path style="opacity:1" fill="#db2227" d="M 15.5,24.5 C 17.5,24.5 19.5,24.5 21.5,24.5C 21.5,25.5 21.5,26.5 21.5,27.5C 19.5,27.5 17.5,27.5 15.5,27.5C 15.5,26.5 15.5,25.5 15.5,24.5 Z"/></g>
<g><path style="opacity:1" fill="#bec5cf" d="M 692.5,22.5 C 694.39,22.2965 695.89,22.9632 697,24.5C 699,21.8333 701,21.8333 703,24.5C 704.667,21.8333 706.333,21.8333 708,24.5C 709.133,22.7888 710.633,22.2888 712.5,23C 713.591,25.0639 713.758,27.2305 713,29.5C 711.062,30.8602 709.396,30.5268 708,28.5C 706.225,31.0443 704.392,31.0443 702.5,28.5C 700.684,31.0643 698.851,31.0643 697,28.5C 695.867,30.2112 694.367,30.7112 692.5,30C 691.221,27.5024 691.221,25.0024 692.5,22.5 Z"/></g>
<g><path style="opacity:1" fill="#445372" d="M 710.5,24.5 C 711.586,24.62 712.253,25.2867 712.5,26.5C 712.167,27.1667 711.833,27.8333 711.5,28.5C 710.571,27.3112 710.238,25.9778 710.5,24.5 Z"/></g>
<g><path style="opacity:1" fill="#2f4364" d="M 704.5,24.5 C 705.586,24.62 706.253,25.2867 706.5,26.5C 706.167,27.1667 705.833,27.8333 705.5,28.5C 704.571,27.3112 704.238,25.9778 704.5,24.5 Z"/></g>
<g><path style="opacity:1" fill="#344667" d="M 698.5,24.5 C 699.586,24.62 700.253,25.2867 700.5,26.5C 700.167,27.1667 699.833,27.8333 699.5,28.5C 698.571,27.3112 698.238,25.9778 698.5,24.5 Z"/></g>
<g><path style="opacity:1" fill="#525e7c" d="M 693.5,24.5 C 694.586,24.62 695.253,25.2867 695.5,26.5C 695.167,27.1667 694.833,27.8333 694.5,28.5C 693.571,27.3112 693.238,25.9778 693.5,24.5 Z"/></g>
<g><path style="opacity:1" fill="#8490a3" d="M 109.5,24.5 C 113.322,25.7889 117.155,25.7889 121,24.5C 123.929,24.9094 126.262,26.2427 128,28.5C 130.167,27 130,25.8333 127.5,25C 128.448,24.5172 129.448,24.3505 130.5,24.5C 130.714,26.1439 130.38,27.6439 129.5,29C 121.507,29.4997 113.507,29.6664 105.5,29.5C 105.457,25.1074 105.957,24.7741 107,28.5C 107.48,26.867 108.313,25.5336 109.5,24.5 Z"/></g>
<g><path style="opacity:1" fill="#328e97" d="M 570.5,21.5 C 575.744,22.0384 581.077,22.0384 586.5,21.5C 586.5,22.5 586.5,23.5 586.5,24.5C 585.5,24.5 584.5,24.5 583.5,24.5C 583.5,26.5 583.5,28.5 583.5,30.5C 582.5,30.5 581.5,30.5 580.5,30.5C 580.799,28.396 580.466,26.396 579.5,24.5C 578.655,29.8439 575.655,31.6773 570.5,30C 567.899,27.1705 567.899,24.3371 570.5,21.5 Z"/></g>
<g><path style="opacity:1" fill="#d9eced" d="M 571.5,24.5 C 572.833,24.5 574.167,24.5 575.5,24.5C 575.778,26.3464 575.111,27.6798 573.5,28.5C 571.889,27.6798 571.222,26.3464 571.5,24.5 Z"/></g>
<g><path style="opacity:1" fill="#6d7076" d="M 64.5,21.5 C 73.1667,21.5 81.8333,21.5 90.5,21.5C 90.5,25.5 90.5,29.5 90.5,33.5C 81.8333,33.5 73.1667,33.5 64.5,33.5C 64.5,29.5 64.5,25.5 64.5,21.5 Z"/></g>
<g><path style="opacity:1" fill="#201e1e" d="M 25.5,38.5 C 49.8333,38.5 74.1667,38.5 98.5,38.5C 98.5,61.8333 98.5,85.1667 98.5,108.5C 74.1667,108.5 49.8333,108.5 25.5,108.5C 25.5,85.1667 25.5,61.8333 25.5,38.5 Z"/></g>
<g><path style="opacity:1" fill="#1a2539" d="M 25.5,38.5 C 49.9944,37.5023 74.661,37.169 99.5,37.5C 99.5,61.5 99.5,85.5 99.5,109.5C 74.661,109.831 49.9944,109.498 25.5,108.5C 49.8333,108.5 74.1667,108.5 98.5,108.5C 98.5,85.1667 98.5,61.8333 98.5,38.5C 74.1667,38.5 49.8333,38.5 25.5,38.5 Z"/></g>
<g><path style="opacity:1" fill="#2e2d2d" d="M 284.5,37.5 C 308.169,37.3334 331.836,37.5 355.5,38C 356,38.5 356.5,39 357,39.5C 357.824,64.5426 357.657,89.5426 356.5,114.5C 333.176,115.5 309.843,115.833 286.5,115.5C 281.156,115.666 275.823,115.499 270.5,115C 269.531,110.263 269.197,105.43 269.5,100.5C 269.5,85.1667 269.5,69.8333 269.5,54.5C 269.215,49.1032 269.549,43.7698 270.5,38.5C 275.12,37.5067 279.786,37.1734 284.5,37.5 Z"/></g>
<g><path style="opacity:1" fill="#2f2f2f" d="M 456.5,113.5 C 437.803,113.641 418.803,113.475 399.5,113C 417.497,112.5 435.497,112.333 453.5,112.5C 453.5,95.1667 453.5,77.8333 453.5,60.5C 453.808,54.5746 453.475,48.7412 452.5,43C 426.5,42.3333 400.5,42.3333 374.5,43C 373.525,48.7412 373.192,54.5746 373.5,60.5C 399.479,62.4911 425.812,63.1577 452.5,62.5C 452.825,78.7442 452.491,94.9109 451.5,111C 425.594,111.828 399.761,111.661 374,110.5C 372.354,110.86 371.188,112.193 370.5,114.5C 369.172,89.2941 369.172,63.9608 370.5,38.5C 398.827,37.3335 427.161,37.1668 455.5,38C 456,38.5 456.5,39 457,39.5C 457.83,64.3368 457.663,89.0034 456.5,113.5 Z"/></g>
<g><path style="opacity:1" fill="#302f30" d="M 33.5,42.5 C 52.5,42.5 71.5,42.5 90.5,42.5C 90.5,62.8333 90.5,83.1667 90.5,103.5C 71.5903,103.826 52.757,103.493 34,102.5C 33.5,82.5028 33.3334,62.5028 33.5,42.5 Z"/></g>
<g><path style="opacity:1" fill="#027e87" d="M 240.5,13.5 C 240.833,13.5 241.167,13.5 241.5,13.5C 250.095,27.6953 259.428,41.362 269.5,54.5C 269.5,69.8333 269.5,85.1667 269.5,100.5C 259.673,114.148 250.34,128.148 241.5,142.5C 240.5,142.5 239.5,142.5 238.5,142.5C 235.466,132.639 228.8,126.806 218.5,125C 215.183,124.502 211.85,124.335 208.5,124.5C 212.14,118.517 215.806,112.517 219.5,106.5C 231.747,106.822 243.914,106.488 256,105.5C 256.667,83.5 256.667,61.5 256,39.5C 255.5,39 255,38.5 254.5,38C 240.171,37.5001 225.837,37.3334 211.5,37.5C 206.92,29.5811 201.92,21.9144 196.5,14.5C 210.99,13.504 225.657,13.1707 240.5,13.5 Z"/></g>
<g><path style="opacity:1" fill="#3f5259" d="M 275.5,41.5 C 300.836,41.3334 326.169,41.5 351.5,42C 352,42.5 352.5,43 353,43.5C 353.499,49.1569 353.666,54.8236 353.5,60.5C 326.833,60.5 300.167,60.5 273.5,60.5C 272.94,53.8787 273.607,47.5454 275.5,41.5 Z"/></g>
<g><path style="opacity:1" fill="#40535b" d="M 453.5,60.5 C 426.833,60.5 400.167,60.5 373.5,60.5C 373.192,54.5746 373.525,48.7412 374.5,43C 400.5,42.3333 426.5,42.3333 452.5,43C 453.475,48.7412 453.808,54.5746 453.5,60.5 Z"/></g>
<g><path style="opacity:1" fill="#2c2d2d" d="M 211.5,37.5 C 225.837,37.3334 240.171,37.5001 254.5,38C 255,38.5 255.5,39 256,39.5C 256.667,61.5 256.667,83.5 256,105.5C 243.914,106.488 231.747,106.822 219.5,106.5C 202.589,106.825 185.756,106.492 169,105.5C 168.178,83.1237 168.344,60.7903 169.5,38.5C 183.484,37.5008 197.484,37.1674 211.5,37.5 Z"/></g>
<g><path style="opacity:1" fill="#40535b" d="M 173.5,42.5 C 199.502,42.3334 225.502,42.5 251.5,43C 252.475,48.7412 252.808,54.5746 252.5,60.5C 226.167,60.5 199.833,60.5 173.5,60.5C 173.5,54.5 173.5,48.5 173.5,42.5 Z"/></g>
<g><path style="opacity:1" fill="#212122" d="M 740.5,39.5 C 744.401,38.8571 747.734,39.8571 750.5,42.5C 762.677,64.2051 768.844,87.5384 769,112.5C 768.5,113 768,113.5 767.5,114C 757.922,114.818 748.422,114.651 739,113.5C 738.333,89.5 738.333,65.5 739,41.5C 739.717,40.9558 740.217,40.2891 740.5,39.5 Z"/></g>
<g><path style="opacity:1" fill="#40535b" d="M 741.5,42.5 C 744.044,42.1043 746.211,42.771 748,44.5C 757.865,63.337 764.031,83.337 766.5,104.5C 766.468,106.759 766.134,108.925 765.5,111C 757.507,111.5 749.507,111.666 741.5,111.5C 741.5,88.5 741.5,65.5 741.5,42.5 Z"/></g>
<g><path style="opacity:1" fill="#282728" d="M 735.5,114.5 C 708.498,114.667 681.498,114.5 654.5,114C 758.494,113.5 758.494,112.667 654.5,111.5C 654.667,111.167 654.833,110.833 655,110.5C 680.426,111.495 705.926,111.828 731.5,111.5C 731.5,95.5 731.5,79.5 731.5,63.5C 705.833,63.5 680.167,63.5 654.5,63.5C 654.783,79.86 654.283,96.1933 653,112.5C 652.722,113.416 652.222,114.082 651.5,114.5C 651.167,114.5 650.833,114.5 650.5,114.5C 650.5,89.5 650.5,64.5 650.5,39.5C 650.611,38.8826 650.944,38.3826 651.5,38C 679.167,37.3333 706.833,37.3333 734.5,38C 735,38.5 735.5,39 736,39.5C 736.83,64.67 736.663,89.67 735.5,114.5 Z"/></g>
<g><path style="opacity:1" fill="#40525a" d="M 655.5,41.5 C 680.502,41.3334 705.502,41.5 730.5,42C 731,42.5 731.5,43 732,43.5C 732.499,49.1569 732.666,54.8236 732.5,60.5C 706.5,60.5 680.5,60.5 654.5,60.5C 654.209,54.077 654.542,47.7436 655.5,41.5 Z"/></g>
<g><path style="opacity:1" fill="#303030" d="M 273.5,63.5 C 299.833,63.5 326.167,63.5 352.5,63.5C 352.667,79.1702 352.5,94.8369 352,110.5C 339.073,111.162 326.073,111.496 313,111.5C 299.927,111.496 286.927,111.162 274,110.5C 273.5,94.8369 273.333,79.1702 273.5,63.5 Z"/></g>
<g><path style="opacity:1" fill="#333334" d="M 461.5,39.5 C 461.333,63.5023 461.5,87.5023 462,111.5C 462.333,87.8333 462.667,64.1667 463,40.5C 463.377,41.9423 464.21,42.9423 465.5,43.5C 465.5,49.1667 465.5,54.8333 465.5,60.5C 464.799,123.49 464.799,124.157 465.5,62.5C 491.833,62.5 518.167,62.5 544.5,62.5C 544.825,78.7442 544.491,94.9109 543.5,111C 517.226,111.482 491.226,111.649 465.5,111.5C 492.16,112.333 518.827,112.833 545.5,113C 517.664,113.168 489.997,113.668 462.5,114.5C 461.883,114.389 461.383,114.056 461,113.5C 460.17,88.6632 460.337,63.9966 461.5,39.5 Z"/></g>
<g><path style="opacity:1" fill="#303031" d="M 735.5,114.5 C 707.5,115.833 679.5,115.833 651.5,114.5C 652.222,114.082 652.722,113.416 653,112.5C 654.283,96.1933 654.783,79.86 654.5,63.5C 680.167,63.5 705.833,63.5 731.5,63.5C 731.5,79.5 731.5,95.5 731.5,111.5C 705.926,111.828 680.426,111.495 655,110.5C 654.833,110.833 654.667,111.167 654.5,111.5C 758.494,112.667 758.494,113.5 654.5,114C 681.498,114.5 708.498,114.667 735.5,114.5 Z"/></g>
<g><path style="opacity:1" fill="#40535b" d="M 276.5,64.5 C 288.167,64.5 299.833,64.5 311.5,64.5C 311.5,79.5 311.5,94.5 311.5,109.5C 299.833,109.5 288.167,109.5 276.5,109.5C 276.5,94.5 276.5,79.5 276.5,64.5 Z"/></g>
<g><path style="opacity:1" fill="#40535b" d="M 315.5,64.5 C 327.167,64.5 338.833,64.5 350.5,64.5C 350.667,79.1705 350.5,93.8371 350,108.5C 338.581,109.488 327.081,109.821 315.5,109.5C 315.5,94.5 315.5,79.5 315.5,64.5 Z"/></g>
<g><path style="opacity:1" fill="#40525a" d="M 376.5,64.5 C 388.167,64.5 399.833,64.5 411.5,64.5C 411.5,79.8333 411.5,95.1667 411.5,110.5C 399.919,110.821 388.419,110.488 377,109.5C 376.5,94.5037 376.333,79.5037 376.5,64.5 Z"/></g>
<g><path style="opacity:1" fill="#40535b" d="M 415.5,64.5 C 427.167,64.5 438.833,64.5 450.5,64.5C 450.667,79.1705 450.5,93.8371 450,108.5C 438.581,109.488 427.081,109.821 415.5,109.5C 415.5,94.5 415.5,79.5 415.5,64.5 Z"/></g>
<g><path style="opacity:1" fill="#40535a" d="M 657.5,64.5 C 668.833,64.5 680.167,64.5 691.5,64.5C 691.5,79.8333 691.5,95.1667 691.5,110.5C 680.252,110.821 669.085,110.487 658,109.5C 657.5,94.5037 657.333,79.5037 657.5,64.5 Z"/></g>
<g><path style="opacity:1" fill="#40535b" d="M 695.5,64.5 C 706.833,64.5 718.167,64.5 729.5,64.5C 729.5,79.5 729.5,94.5 729.5,109.5C 718.167,109.5 706.833,109.5 695.5,109.5C 695.5,94.5 695.5,79.5 695.5,64.5 Z"/></g>
<g><path style="opacity:1" fill="#40535a" d="M 175.5,65.5 C 187.5,65.5 199.5,65.5 211.5,65.5C 211.5,77.5 211.5,89.5 211.5,101.5C 199.5,101.5 187.5,101.5 175.5,101.5C 175.5,89.5 175.5,77.5 175.5,65.5 Z"/></g>
<g><path style="opacity:1" fill="#40545c" d="M 214.5,66.5 C 226.167,66.5 237.833,66.5 249.5,66.5C 249.5,77.8333 249.5,89.1667 249.5,100.5C 237.833,100.5 226.167,100.5 214.5,100.5C 214.5,89.1667 214.5,77.8333 214.5,66.5 Z"/></g>
<g><path style="opacity:1" fill="#353435" d="M 639.5,114.5 C 639.158,115.338 638.492,115.672 637.5,115.5C 610.167,115.5 582.833,115.5 555.5,115.5C 554.542,115.047 553.708,114.381 553,113.5C 552.333,88.8333 552.333,64.1667 553,39.5C 553.5,39 554,38.5 554.5,38C 582.876,37.1753 611.209,37.342 639.5,38.5C 640.829,63.9968 640.829,89.3301 639.5,114.5 Z"/></g>
<g><path style="opacity:1" fill="#40535b" d="M 636.5,60.5 C 610.167,60.5 583.833,60.5 557.5,60.5C 557.5,54.5 557.5,48.5 557.5,42.5C 583.502,42.3334 609.502,42.5 635.5,43C 636.475,48.7412 636.808,54.5746 636.5,60.5 Z"/></g>
<g><path style="opacity:1" fill="#565a64" d="M 11.5,39.5 C 9.78737,73.8067 9.12071,108.14 9.5,142.5C 9.16667,142.5 8.83333,142.5 8.5,142.5C 8.33336,118.164 8.50003,93.8311 9,69.5C 9.50947,59.3196 10.3428,49.3196 11.5,39.5 Z"/></g>
<g><path style="opacity:1" fill="#313030" d="M 462.5,114.5 C 489.997,113.668 517.664,113.168 545.5,113C 518.827,112.833 492.16,112.333 465.5,111.5C 491.226,111.649 517.226,111.482 543.5,111C 544.491,94.9109 544.825,78.7442 544.5,62.5C 518.167,62.5 491.833,62.5 465.5,62.5C 464.799,124.157 464.799,123.49 465.5,60.5C 491.833,60.5 518.167,60.5 544.5,60.5C 545.097,54.0404 544.43,47.8737 542.5,42C 517.167,41.3333 491.833,41.3333 466.5,42C 465.944,42.3826 465.611,42.8826 465.5,43.5C 464.21,42.9423 463.377,41.9423 463,40.5C 462.667,64.1667 462.333,87.8333 462,111.5C 461.5,87.5023 461.333,63.5023 461.5,39.5C 461.611,38.8826 461.944,38.3826 462.5,38C 490.833,37.3333 519.167,37.3333 547.5,38C 548,38.5 548.5,39 549,39.5C 549.667,64.1667 549.667,88.8333 549,113.5C 548.5,114 548,114.5 547.5,115C 518.997,115.83 490.664,115.664 462.5,114.5 Z"/></g>
<g><path style="opacity:1" fill="#40525a" d="M 506.5,64.5 C 518.5,64.5 530.5,64.5 542.5,64.5C 542.667,79.1705 542.5,93.8371 542,108.5C 530.247,109.488 518.414,109.821 506.5,109.5C 506.5,94.5 506.5,79.5 506.5,64.5 Z"/></g>
<g><path style="opacity:1" fill="#40545c" d="M 468.5,65.5 C 479.833,65.5 491.167,65.5 502.5,65.5C 502.5,80.1667 502.5,94.8333 502.5,109.5C 491.167,109.5 479.833,109.5 468.5,109.5C 468.5,94.8333 468.5,80.1667 468.5,65.5 Z"/></g>
<g><path style="opacity:1" fill="#40525a" d="M 465.5,60.5 C 465.5,54.8333 465.5,49.1667 465.5,43.5C 465.611,42.8826 465.944,42.3826 466.5,42C 491.833,41.3333 517.167,41.3333 542.5,42C 544.43,47.8737 545.097,54.0404 544.5,60.5C 518.167,60.5 491.833,60.5 465.5,60.5 Z"/></g>
<g><path style="opacity:1" fill="#232222" d="M 786.5,105.5 C 785.209,105.263 784.209,105.596 783.5,106.5C 782.052,108.555 780.719,110.722 779.5,113C 778.5,113.667 777.5,113.667 776.5,113C 775.536,108.934 775.203,104.767 775.5,100.5C 775.392,96.753 775.892,93.0863 777,89.5C 778.388,88.4464 779.888,88.2797 781.5,89C 782.633,92.0641 784.133,94.8975 786,97.5C 786.497,100.146 786.664,102.813 786.5,105.5 Z"/></g>
<g><path style="opacity:1" fill="#252526" d="M 105.5,38.5 C 122.077,38.1751 138.577,38.5084 155,39.5C 155.667,61.8333 155.667,84.1667 155,106.5C 154.5,107 154,107.5 153.5,108C 137.49,108.833 121.49,108.666 105.5,107.5C 104.168,84.4703 104.168,61.4703 105.5,38.5 Z"/></g>
<g><path style="opacity:1" fill="#40535b" d="M 110.5,43.5 C 123.746,43.1773 136.913,43.5106 150,44.5C 150.826,64.4065 150.659,84.2399 149.5,104C 136.258,104.822 123.091,104.655 110,103.5C 109.18,83.4269 109.346,63.4269 110.5,43.5 Z"/></g>
<g><path style="opacity:1" fill="#a6d68e" d="M 269.5,100.5 C 269.197,105.43 269.531,110.263 270.5,115C 275.823,115.499 281.156,115.666 286.5,115.5C 280.833,124.167 275.167,132.833 269.5,141.5C 269.5,141.833 269.5,142.167 269.5,142.5C 260.167,142.5 250.833,142.5 241.5,142.5C 250.34,128.148 259.673,114.148 269.5,100.5 Z"/></g>
<g><path style="opacity:1" fill="#555555" d="M 783.5,106.5 C 784.209,105.596 785.209,105.263 786.5,105.5C 786.666,110.511 786.499,115.511 786,120.5C 785.617,121.056 785.117,121.389 784.5,121.5C 784.5,121.167 784.5,120.833 784.5,120.5C 785.234,119.292 785.567,117.959 785.5,116.5C 774.833,116.167 774.833,115.833 785.5,115.5C 786.055,111.988 785.388,108.988 783.5,106.5 Z"/></g>
<g><path style="opacity:1" fill="#d7d7d7" d="M 775.5,100.5 C 775.203,104.767 775.536,108.934 776.5,113C 777.5,113.667 778.5,113.667 779.5,113C 780.719,110.722 782.052,108.555 783.5,106.5C 785.388,108.988 786.055,111.988 785.5,115.5C 774.833,115.833 774.833,116.167 785.5,116.5C 785.567,117.959 785.234,119.292 784.5,120.5C 781.102,120.82 777.768,120.487 774.5,119.5C 777.433,117.262 777.099,116.262 773.5,116.5C 772.559,111.93 772.226,107.263 772.5,102.5C 773.319,105.305 773.819,108.305 774,111.5C 774.177,107.644 774.677,103.977 775.5,100.5 Z"/></g>
<g><path style="opacity:1" fill="#292727" d="M 373.5,60.5 C 400.167,60.5 426.833,60.5 453.5,60.5C 453.5,77.8333 453.5,95.1667 453.5,112.5C 435.497,112.333 417.497,112.5 399.5,113C 418.803,113.475 437.803,113.641 456.5,113.5C 442.516,114.833 428.183,115.499 413.5,115.5C 398.996,115.5 384.663,115.167 370.5,114.5C 371.188,112.193 372.354,110.86 374,110.5C 399.761,111.661 425.594,111.828 451.5,111C 452.491,94.9109 452.825,78.7442 452.5,62.5C 425.812,63.1577 399.479,62.4911 373.5,60.5 Z"/></g>
<g><path style="opacity:1" fill="#242222" d="M 557.5,60.5 C 583.833,60.5 610.167,60.5 636.5,60.5C 637.332,76.995 637.832,93.6616 638,110.5C 638.333,102.5 638.667,94.5 639,86.5C 639.5,95.8274 639.666,105.161 639.5,114.5C 611.831,114.667 584.165,114.5 556.5,114C 663.165,113.167 663.165,112.667 556.5,112.5C 555.396,89.1836 555.23,65.8502 556,42.5C 556.172,48.6807 556.672,54.6807 557.5,60.5 Z"/></g>
<g><path style="opacity:1" fill="#303131" d="M 557.5,63.5 C 583.5,63.5 609.5,63.5 635.5,63.5C 635.5,79.5 635.5,95.5 635.5,111.5C 609.831,111.667 584.165,111.5 558.5,111C 557.509,95.2444 557.175,79.4111 557.5,63.5 Z"/></g>
<g><path style="opacity:1" fill="#40535b" d="M 598.5,64.5 C 610.167,64.5 621.833,64.5 633.5,64.5C 633.5,79.5 633.5,94.5 633.5,109.5C 621.833,109.5 610.167,109.5 598.5,109.5C 598.5,94.5 598.5,79.5 598.5,64.5 Z"/></g>
<g><path style="opacity:1" fill="#40535b" d="M 559.5,65.5 C 571.167,65.5 582.833,65.5 594.5,65.5C 594.5,80.1667 594.5,94.8333 594.5,109.5C 582.833,109.5 571.167,109.5 559.5,109.5C 559.5,94.8333 559.5,80.1667 559.5,65.5 Z"/></g>
<g><path style="opacity:1" fill="#78634d" d="M 186.5,110.5 C 187.404,111.209 187.737,112.209 187.5,113.5C 184.5,113.5 181.5,113.5 178.5,113.5C 178.5,112.167 178.5,110.833 178.5,109.5C 181.385,109.194 184.052,109.527 186.5,110.5 Z"/></g>
<g><path style="opacity:1" fill="#e89626" d="M 186.5,110.5 C 185.848,111.725 184.681,112.392 183,112.5C 181.833,112.167 180.667,111.833 179.5,111.5C 181.743,110.526 184.076,110.192 186.5,110.5 Z"/></g>
<g><path style="opacity:1" fill="#21201f" d="M 773.5,116.5 C 777.099,116.262 777.433,117.262 774.5,119.5C 777.768,120.487 781.102,120.82 784.5,120.5C 784.5,120.833 784.5,121.167 784.5,121.5C 780.5,121.5 776.5,121.5 772.5,121.5C 770.5,121.5 768.5,121.5 766.5,121.5C 766.5,119.833 766.5,118.167 766.5,116.5C 768.833,116.5 771.167,116.5 773.5,116.5 Z"/></g>
<g><path style="opacity:1" fill="#dbdbdb" d="M 555.5,115.5 C 582.833,115.5 610.167,115.5 637.5,115.5C 624.677,116.495 611.677,116.829 598.5,116.5C 598.5,118.833 598.5,121.167 598.5,123.5C 601.713,123.19 604.713,123.523 607.5,124.5C 601.167,124.5 594.833,124.5 588.5,124.5C 591.287,123.523 594.287,123.19 597.5,123.5C 597.5,121.167 597.5,118.833 597.5,116.5C 583.323,116.829 569.323,116.496 555.5,115.5 Z"/></g>
<g><path style="opacity:1" fill="#b0b0b0" d="M 564.5,141.5 C 548.008,142.497 531.342,142.83 514.5,142.5C 513.167,143.833 513.167,145.167 514.5,146.5C 514.5,152.5 514.5,158.5 514.5,164.5C 440.5,165.833 366.5,165.833 292.5,164.5C 292.211,158.409 292.545,152.409 293.5,146.5C 293.5,145.167 293.5,143.833 293.5,142.5C 285.5,142.5 277.5,142.5 269.5,142.5C 269.5,142.167 269.5,141.833 269.5,141.5C 276.833,141.5 284.167,141.5 291.5,141.5C 291.5,133.167 291.5,124.833 291.5,116.5C 366.167,116.5 440.833,116.5 515.5,116.5C 515.5,124.833 515.5,133.167 515.5,141.5C 531.833,141.5 548.167,141.5 564.5,141.5 Z"/></g>
<g><path style="opacity:1" fill="#eeeeee" d="M 292.5,117.5 C 366.503,117.167 440.503,117.5 514.5,118.5C 477.5,118.833 440.5,119.167 403.5,119.5C 366.161,119.5 329.161,118.833 292.5,117.5 Z"/></g>
<g><path style="opacity:1" fill="#b7a794" d="M 630.5,119.5 C 633.833,119.5 637.167,119.5 640.5,119.5C 640.5,120.833 640.5,122.167 640.5,123.5C 637.167,123.5 633.833,123.5 630.5,123.5C 630.5,122.167 630.5,120.833 630.5,119.5 Z"/></g>
<g><path style="opacity:1" fill="#e6901f" d="M 631.5,120.5 C 633.924,120.192 636.257,120.526 638.5,121.5C 637.333,121.833 636.167,122.167 635,122.5C 633.319,122.392 632.152,121.725 631.5,120.5 Z"/></g>
<g><path style="opacity:1" fill="#fefefe" d="M 294.5,120.5 C 367.167,120.5 439.833,120.5 512.5,120.5C 512.5,134.833 512.5,149.167 512.5,163.5C 439.833,163.5 367.167,163.5 294.5,163.5C 294.5,149.167 294.5,134.833 294.5,120.5 Z"/></g>
<g><path style="opacity:1" fill="#5c5b5b" d="M 588.5,124.5 C 594.833,124.5 601.167,124.5 607.5,124.5C 612.795,124.649 617.462,126.316 621.5,129.5C 605.669,123.842 590.003,124.175 574.5,130.5C 575.343,128.827 576.676,127.66 578.5,127C 581.618,125.273 584.951,124.439 588.5,124.5 Z"/></g>
<g><path style="opacity:1" fill="#dbdee4" d="M 46.5,124.5 C 53.4863,124.331 55.153,127.164 51.5,133C 44.4159,133.475 42.7492,130.642 46.5,124.5 Z"/></g>
<g><path style="opacity:1" fill="#dfe2e7" d="M 54.5,124.5 C 57.1667,124.5 59.8333,124.5 62.5,124.5C 62.5,125.5 62.5,126.5 62.5,127.5C 61.5,127.5 60.5,127.5 59.5,127.5C 59.5,129.5 59.5,131.5 59.5,133.5C 58.5,133.5 57.5,133.5 56.5,133.5C 56.7105,130.248 56.0438,127.248 54.5,124.5 Z"/></g>
<g><path style="opacity:1" fill="#d5d9df" d="M 63.5,124.5 C 65.4672,124.261 67.3005,124.594 69,125.5C 68.6533,128.271 68.82,130.938 69.5,133.5C 67.2075,133.756 65.0408,133.423 63,132.5C 63.0833,129.881 63.25,127.214 63.5,124.5 Z"/></g>
<g><path style="opacity:1" fill="#e9ebef" d="M 76.5,124.5 C 81.8746,124.172 87.2079,124.505 92.5,125.5C 95.1667,127.833 95.1667,130.167 92.5,132.5C 87.1667,133.833 81.8333,133.833 76.5,132.5C 75.6171,131.452 74.9504,130.285 74.5,129C 75.4138,127.594 76.0805,126.094 76.5,124.5 Z"/></g>
<g><path style="opacity:1" fill="#222121" d="M 208.5,124.5 C 211.85,124.335 215.183,124.502 218.5,125C 228.8,126.806 235.466,132.639 238.5,142.5C 239.5,142.5 240.5,142.5 241.5,142.5C 250.833,142.5 260.167,142.5 269.5,142.5C 277.5,142.5 285.5,142.5 293.5,142.5C 293.5,143.833 293.5,145.167 293.5,146.5C 292.833,146.5 292.167,146.5 291.5,146.5C 274.325,146.17 257.325,146.503 240.5,147.5C 240.5,147.833 240.5,148.167 240.5,148.5C 240.5,157.5 240.5,166.5 240.5,175.5C 237.813,175.336 235.146,175.503 232.5,176C 227.901,183.279 221.568,188.112 213.5,190.5C 208.167,190.5 202.833,190.5 197.5,190.5C 189.696,187.699 183.696,182.699 179.5,175.5C 177.052,174.527 174.385,174.194 171.5,174.5C 171.5,166.167 171.5,157.833 171.5,149.5C 171.5,148.833 171.5,148.167 171.5,147.5C 120.336,146.501 69.0027,146.168 17.5,146.5C 16.5128,151.305 16.1795,156.305 16.5,161.5C 12.1667,161.5 7.83333,161.5 3.5,161.5C 3.5,156.833 3.5,152.167 3.5,147.5C 5.91132,146.483 7.57799,144.816 8.5,142.5C 8.83333,142.5 9.16667,142.5 9.5,142.5C 64.1707,142.833 118.837,142.5 173.5,141.5C 181.028,127.641 192.695,121.975 208.5,124.5 Z"/></g>
<g><path style="opacity:1" fill="#12274d" d="M 47.5,127.5 C 48.5,127.5 49.5,127.5 50.5,127.5C 50.5,128.5 50.5,129.5 50.5,130.5C 49.5,130.5 48.5,130.5 47.5,130.5C 47.5,129.5 47.5,128.5 47.5,127.5 Z"/></g>
<g><path style="opacity:1" fill="#201f1f" d="M 621.5,129.5 C 625.3,131.963 627.967,135.296 629.5,139.5C 629.414,140.496 629.748,141.329 630.5,142C 666.498,142.5 702.498,142.667 738.5,142.5C 749.138,143.546 759.805,144.212 770.5,144.5C 770.263,143.209 770.596,142.209 771.5,141.5C 771.5,142.5 771.5,143.5 771.5,144.5C 774.325,144.081 776.491,145.081 778,147.5C 778.667,151.5 778.667,155.5 778,159.5C 777.303,161.584 776.136,163.251 774.5,164.5C 768.642,164.822 762.975,164.489 757.5,163.5C 757.5,158.167 757.5,152.833 757.5,147.5C 757.5,147.167 757.5,146.833 757.5,146.5C 715.67,145.501 673.67,145.168 631.5,145.5C 631.5,155.167 631.5,164.833 631.5,174.5C 628.941,174.198 626.607,174.532 624.5,175.5C 623.833,175.5 623.5,175.833 623.5,176.5C 618.745,183.926 612.078,188.592 603.5,190.5C 598.833,190.5 594.167,190.5 589.5,190.5C 581.722,187.729 575.722,182.729 571.5,175.5C 569.052,174.527 566.385,174.194 563.5,174.5C 563.5,164.833 563.5,155.167 563.5,145.5C 547.167,145.5 530.833,145.5 514.5,145.5C 514.5,144.5 514.5,143.5 514.5,142.5C 531.342,142.83 548.008,142.497 564.5,141.5C 565.976,139.231 567.476,136.898 569,134.5C 570.451,132.536 572.284,131.203 574.5,130.5C 590.003,124.175 605.669,123.842 621.5,129.5 Z"/></g>
<g><path style="opacity:1" fill="#959698" d="M 772.5,121.5 C 776.5,121.5 780.5,121.5 784.5,121.5C 781.038,122.482 777.371,122.815 773.5,122.5C 773.817,126.702 773.483,130.702 772.5,134.5C 772.5,130.167 772.5,125.833 772.5,121.5 Z"/></g>
<g><path style="opacity:1" fill="#1e2025" d="M 98.5,130.5 C 111.184,130.168 123.851,130.501 136.5,131.5C 130.167,131.833 123.833,132.167 117.5,132.5C 110.796,132.496 104.463,131.83 98.5,130.5 Z"/></g>
<g><path style="opacity:1" fill="#a1242d" d="M 14.5,133.5 C 16.924,133.192 19.2573,133.526 21.5,134.5C 20.3333,134.833 19.1667,135.167 18,135.5C 16.3189,135.392 15.1522,134.725 14.5,133.5 Z"/></g>
<g><path style="opacity:1" fill="#dba938" d="M 279.5,133.5 C 281.924,133.192 284.257,133.526 286.5,134.5C 285.333,134.833 284.167,135.167 283,135.5C 281.319,135.392 280.152,134.725 279.5,133.5 Z"/></g>
<g><path style="opacity:1" fill="#a5852d" d="M 762.5,133.5 C 764.924,133.192 767.257,133.526 769.5,134.5C 768.333,134.833 767.167,135.167 766,135.5C 764.319,135.392 763.152,134.725 762.5,133.5 Z"/></g>
<g><path style="opacity:1" fill="#1b273c" d="M 629.5,139.5 C 630.5,140.833 631.5,140.833 632.5,139.5C 667.655,141.165 702.988,142.165 738.5,142.5C 702.498,142.667 666.498,142.5 630.5,142C 629.748,141.329 629.414,140.496 629.5,139.5 Z"/></g>
<g><path style="opacity:1" fill="#3d3d3d" d="M 514.5,142.5 C 514.5,143.5 514.5,144.5 514.5,145.5C 530.833,145.5 547.167,145.5 563.5,145.5C 563.5,155.167 563.5,164.833 563.5,174.5C 566.385,174.194 569.052,174.527 571.5,175.5C 568.5,175.5 565.5,175.5 562.5,175.5C 562.5,174.833 562.5,174.167 562.5,173.5C 562.5,164.833 562.5,156.167 562.5,147.5C 546.675,146.504 530.675,146.17 514.5,146.5C 513.167,145.167 513.167,143.833 514.5,142.5 Z"/></g>
<g><path style="opacity:1" fill="#363536" d="M 757.5,146.5 C 715.833,146.5 674.167,146.5 632.5,146.5C 632.5,155.833 632.5,165.167 632.5,174.5C 630.052,175.473 627.385,175.806 624.5,175.5C 626.607,174.532 628.941,174.198 631.5,174.5C 631.5,164.833 631.5,155.167 631.5,145.5C 673.67,145.168 715.67,145.501 757.5,146.5 Z"/></g>
<g><path style="opacity:1" fill="#9c9c9e" d="M 17.5,146.5 C 69.0027,146.168 120.336,146.501 171.5,147.5C 154.991,147.17 138.658,147.504 122.5,148.5C 118.833,148.5 115.167,148.5 111.5,148.5C 80.6712,147.502 49.6712,147.169 18.5,147.5C 18.5,149.5 18.5,151.5 18.5,153.5C 69.1667,153.5 119.833,153.5 170.5,153.5C 170.232,151.901 170.566,150.568 171.5,149.5C 171.5,157.833 171.5,166.167 171.5,174.5C 174.385,174.194 177.052,174.527 179.5,175.5C 147.718,176.443 116.052,175.11 84.5,171.5C 85.964,170.84 87.6307,170.507 89.5,170.5C 116.437,173.04 143.437,174.04 170.5,173.5C 170.5,168.167 170.5,162.833 170.5,157.5C 119.833,157.5 69.1667,157.5 18.5,157.5C 18.5,158.833 18.5,160.167 18.5,161.5C 30.8647,163.1 43.198,164.933 55.5,167C 54.9056,167.464 54.2389,167.631 53.5,167.5C 41.2641,166.546 29.2641,164.879 17.5,162.5C 17.5,157.167 17.5,151.833 17.5,146.5 Z"/></g>
<g><path style="opacity:1" fill="#abacae" d="M 757.5,146.5 C 757.5,146.833 757.5,147.167 757.5,147.5C 749.833,147.5 742.167,147.5 734.5,147.5C 734.5,149.5 734.5,151.5 734.5,153.5C 742.019,153.175 749.352,153.508 756.5,154.5C 709.833,155.167 709.833,155.833 756.5,156.5C 745.012,157.495 733.345,157.828 721.5,157.5C 721.67,158.822 721.337,159.989 720.5,161C 715.177,161.499 709.844,161.666 704.5,161.5C 704.851,159.131 705.018,156.797 705,154.5C 704.722,155.416 704.222,156.082 703.5,156.5C 686.008,157.497 668.341,157.83 650.5,157.5C 650.214,163.259 650.548,168.925 651.5,174.5C 645.167,174.5 638.833,174.5 632.5,174.5C 632.5,165.167 632.5,155.833 632.5,146.5C 674.167,146.5 715.833,146.5 757.5,146.5 Z"/></g>
<g><path style="opacity:1" fill="#c8c9cc" d="M 111.5,148.5 C 111.5,149.5 111.5,150.5 111.5,151.5C 115.167,151.5 118.833,151.5 122.5,151.5C 122.5,150.5 122.5,149.5 122.5,148.5C 138.658,147.504 154.991,147.17 171.5,147.5C 171.5,148.167 171.5,148.833 171.5,149.5C 170.566,150.568 170.232,151.901 170.5,153.5C 119.833,153.5 69.1667,153.5 18.5,153.5C 18.5,151.5 18.5,149.5 18.5,147.5C 49.6712,147.169 80.6712,147.502 111.5,148.5 Z"/></g>
<g><path style="opacity:1" fill="#c7c8cb" d="M 650.5,147.5 C 678.167,147.5 705.833,147.5 733.5,147.5C 733.5,149.5 733.5,151.5 733.5,153.5C 729.5,153.5 725.5,153.5 721.5,153.5C 721.5,151.833 721.5,150.167 721.5,148.5C 715.833,148.5 710.167,148.5 704.5,148.5C 704.5,150.167 704.5,151.833 704.5,153.5C 686.5,153.5 668.5,153.5 650.5,153.5C 650.5,151.5 650.5,149.5 650.5,147.5 Z"/></g>
<g><path style="opacity:1" fill="#6b6a6d" d="M 56.5,148.5 C 59.5,148.5 62.5,148.5 65.5,148.5C 65.5,149.5 65.5,150.5 65.5,151.5C 62.5,151.5 59.5,151.5 56.5,151.5C 56.5,150.5 56.5,149.5 56.5,148.5 Z"/></g>
<g><path style="opacity:1" fill="#717174" d="M 111.5,148.5 C 115.167,148.5 118.833,148.5 122.5,148.5C 122.5,149.5 122.5,150.5 122.5,151.5C 118.833,151.5 115.167,151.5 111.5,151.5C 111.5,150.5 111.5,149.5 111.5,148.5 Z"/></g>
<g><path style="opacity:1" fill="#c7c8cb" d="M 709.5,149.5 C 712.833,149.5 716.167,149.5 719.5,149.5C 719.5,153.167 719.5,156.833 719.5,160.5C 716.167,160.5 712.833,160.5 709.5,160.5C 709.5,156.833 709.5,153.167 709.5,149.5 Z"/></g>
<g><path style="opacity:1" fill="#6f6e71" d="M 685.5,149.5 C 688.833,149.5 692.167,149.5 695.5,149.5C 695.5,150.5 695.5,151.5 695.5,152.5C 692.167,152.5 688.833,152.5 685.5,152.5C 685.5,151.5 685.5,150.5 685.5,149.5 Z"/></g>
<g><path style="opacity:1" fill="#545356" d="M 706.5,150.5 C 707.765,151.514 708.431,153.014 708.5,155C 708.167,156.5 707.833,158 707.5,159.5C 706.516,156.572 706.183,153.572 706.5,150.5 Z"/></g>
<g><path style="opacity:1" fill="#a5a5a8" d="M 240.5,147.5 C 257.325,146.503 274.325,146.17 291.5,146.5C 291.5,149.167 291.5,151.833 291.5,154.5C 275.167,154.5 258.833,154.5 242.5,154.5C 252.987,153.506 263.654,153.172 274.5,153.5C 274.833,146.833 275.167,146.833 275.5,153.5C 280.5,153.5 285.5,153.5 290.5,153.5C 290.5,151.5 290.5,149.5 290.5,147.5C 273.833,147.5 257.167,147.5 240.5,147.5 Z"/></g>
<g><path style="opacity:1" fill="#272626" d="M 242.5,154.5 C 258.833,154.5 275.167,154.5 291.5,154.5C 275.534,156.485 259.201,157.152 242.5,156.5C 242.5,155.833 242.5,155.167 242.5,154.5 Z"/></g>
<g><path style="opacity:1" fill="#262626" d="M 561.5,154.5 C 561.5,155.167 561.5,155.833 561.5,156.5C 500.167,155.833 500.167,155.167 561.5,154.5 Z"/></g>
<g><path style="opacity:1" fill="#262525" d="M 703.5,156.5 C 680.49,156.833 657.49,156.5 634.5,155.5C 646,155.167 657.5,154.833 669,154.5C 680.853,154.501 692.353,155.168 703.5,156.5 Z"/></g>
<g><path style="opacity:1" fill="#272626" d="M 19.5,154.5 C 69.8377,154.167 120.171,154.5 170.5,155.5C 145.333,155.833 120.167,156.167 95,156.5C 69.491,156.5 44.3244,155.833 19.5,154.5 Z"/></g>
<g><path style="opacity:1" fill="#565555" d="M 17.5,146.5 C 17.5,151.833 17.5,157.167 17.5,162.5C 12.5,162.5 7.5,162.5 2.5,162.5C 2.17949,157.305 2.51283,152.305 3.5,147.5C 3.5,152.167 3.5,156.833 3.5,161.5C 7.83333,161.5 12.1667,161.5 16.5,161.5C 16.1795,156.305 16.5128,151.305 17.5,146.5 Z"/></g>
<g><path style="opacity:1" fill="#c6c7ca" d="M 84.5,171.5 C 81.2869,171.81 78.2869,171.477 75.5,170.5C 77.8568,170.663 80.1902,170.497 82.5,170C 77.511,169.251 72.511,168.585 67.5,168C 63.9733,167.192 60.6399,167.359 57.5,168.5C 55.901,168.768 54.5676,168.434 53.5,167.5C 54.2389,167.631 54.9056,167.464 55.5,167C 43.198,164.933 30.8647,163.1 18.5,161.5C 18.5,160.167 18.5,158.833 18.5,157.5C 69.1667,157.5 119.833,157.5 170.5,157.5C 170.5,162.833 170.5,168.167 170.5,173.5C 143.437,174.04 116.437,173.04 89.5,170.5C 87.6307,170.507 85.964,170.84 84.5,171.5 Z"/></g>
<g><path style="opacity:1" fill="#c7c8cb" d="M 240.5,148.5 C 240.5,148.167 240.5,147.833 240.5,147.5C 257.167,147.5 273.833,147.5 290.5,147.5C 290.5,149.5 290.5,151.5 290.5,153.5C 285.5,153.5 280.5,153.5 275.5,153.5C 275.167,146.833 274.833,146.833 274.5,153.5C 263.654,153.172 252.987,153.506 242.5,154.5C 242.5,155.167 242.5,155.833 242.5,156.5C 252.987,157.494 263.654,157.828 274.5,157.5C 274.5,162.833 274.5,168.167 274.5,173.5C 263.5,173.5 252.5,173.5 241.5,173.5C 241.826,164.983 241.493,156.65 240.5,148.5 Z"/></g>
<g><path style="opacity:1" fill="#c7c8cb" d="M 562.5,147.5 C 562.5,156.167 562.5,164.833 562.5,173.5C 556.833,173.5 551.167,173.5 545.5,173.5C 545.5,168.167 545.5,162.833 545.5,157.5C 551.026,157.821 556.36,157.488 561.5,156.5C 561.5,155.833 561.5,155.167 561.5,154.5C 556.36,153.512 551.026,153.179 545.5,153.5C 545.5,151.5 545.5,149.5 545.5,147.5C 551.167,147.5 556.833,147.5 562.5,147.5 Z"/></g>
<g><path style="opacity:1" fill="#c7c8cb" d="M 633.5,157.5 C 638.833,157.5 644.167,157.5 649.5,157.5C 649.5,162.833 649.5,168.167 649.5,173.5C 644.167,173.5 638.833,173.5 633.5,173.5C 633.5,168.167 633.5,162.833 633.5,157.5 Z"/></g>
<g><path style="opacity:1" fill="#c7c8cb" d="M 757.5,147.5 C 757.5,152.833 757.5,158.167 757.5,163.5C 739.238,167.146 720.905,170.646 702.5,174C 685.503,174.5 668.503,174.667 651.5,174.5C 650.548,168.925 650.214,163.259 650.5,157.5C 668.341,157.83 686.008,157.497 703.5,156.5C 704.222,156.082 704.722,155.416 705,154.5C 705.018,156.797 704.851,159.131 704.5,161.5C 709.844,161.666 715.177,161.499 720.5,161C 721.337,159.989 721.67,158.822 721.5,157.5C 733.345,157.828 745.012,157.495 756.5,156.5C 756.5,155.833 756.5,155.167 756.5,154.5C 749.352,153.508 742.019,153.175 734.5,153.5C 734.5,151.5 734.5,149.5 734.5,147.5C 742.167,147.5 749.833,147.5 757.5,147.5 Z"/></g>
<g><path style="opacity:1" fill="#272626" d="M 756.5,154.5 C 756.5,155.167 756.5,155.833 756.5,156.5C 709.833,155.833 709.833,155.167 756.5,154.5 Z"/></g>
<g><path style="opacity:1" fill="#a4a5a8" d="M 591.5,136.5 C 608.997,135.345 618.997,143.345 621.5,160.5C 618.775,179.036 608.108,186.536 589.5,183C 577.056,176.608 572.223,166.441 575,152.5C 578.438,144.893 583.938,139.56 591.5,136.5 Z"/></g>
<g><path style="opacity:1" fill="#f3f3f3" d="M 590.5,139.5 C 608.819,137.333 618.319,145.333 619,163.5C 614.355,178.952 604.188,184.452 588.5,180C 577.278,172.334 574.111,162.167 579,149.5C 581.984,145.106 585.817,141.773 590.5,139.5 Z"/></g>
<g><path style="opacity:1" fill="#242324" d="M 591.5,145.5 C 609.353,144.828 615.519,152.828 610,169.5C 603.02,176.615 595.52,177.282 587.5,171.5C 579.983,161.448 581.317,152.781 591.5,145.5 Z"/></g>
<g><path style="opacity:1" fill="#d0d1d4" d="M 589.5,164.5 C 587.285,159.046 588.618,154.546 593.5,151C 603.538,149.41 608.038,153.576 607,163.5C 603.82,169.234 598.987,171.067 592.5,169C 590.859,167.871 589.859,166.371 589.5,164.5 Z"/></g>
<g><path style="opacity:1" fill="#f1f1f2" d="M 589.5,164.5 C 589.626,162.8 590.293,161.3 591.5,160C 590.978,159.05 590.311,158.216 589.5,157.5C 590.991,156.756 592.491,156.09 594,155.5C 593.852,154.175 594.018,153.008 594.5,152C 596.513,151.691 596.846,152.358 595.5,154C 599.98,154.059 602.647,156.226 603.5,160.5C 602.111,163.366 601.111,166.033 600.5,168.5C 597.171,166.155 593.505,164.822 589.5,164.5 Z"/></g>
<g><path style="opacity:1" fill="#8f8f91" d="M 291.5,146.5 C 292.167,146.5 292.833,146.5 293.5,146.5C 292.545,152.409 292.211,158.409 292.5,164.5C 329.161,165.833 366.161,166.5 403.5,166.5C 440.839,166.5 477.839,165.833 514.5,164.5C 514.5,158.5 514.5,152.5 514.5,146.5C 530.675,146.17 546.675,146.504 562.5,147.5C 556.833,147.5 551.167,147.5 545.5,147.5C 545.5,149.5 545.5,151.5 545.5,153.5C 551.026,153.179 556.36,153.512 561.5,154.5C 500.167,155.167 500.167,155.833 561.5,156.5C 556.36,157.488 551.026,157.821 545.5,157.5C 545.167,157.5 544.833,157.5 544.5,157.5C 534.833,157.5 525.167,157.5 515.5,157.5C 515.5,160.833 515.5,164.167 515.5,167.5C 495.5,167.5 475.5,167.5 455.5,167.5C 455.167,167.5 454.833,167.5 454.5,167.5C 424.833,167.5 395.167,167.5 365.5,167.5C 364.833,167.5 364.167,167.5 363.5,167.5C 339.5,167.5 315.5,167.5 291.5,167.5C 291.5,164.167 291.5,160.833 291.5,157.5C 286.167,157.5 280.833,157.5 275.5,157.5C 275.167,157.5 274.833,157.5 274.5,157.5C 263.654,157.828 252.987,157.494 242.5,156.5C 259.201,157.152 275.534,156.485 291.5,154.5C 291.5,151.833 291.5,149.167 291.5,146.5 Z"/></g>
<g><path style="opacity:1" fill="#c8c9cc" d="M 515.5,147.5 C 525.167,147.5 534.833,147.5 544.5,147.5C 544.5,149.5 544.5,151.5 544.5,153.5C 534.833,153.5 525.167,153.5 515.5,153.5C 515.5,151.5 515.5,149.5 515.5,147.5 Z"/></g>
<g><path style="opacity:1" fill="#89888a" d="M 57.5,168.5 C 60.6399,167.359 63.9733,167.192 67.5,168C 72.511,168.585 77.511,169.251 82.5,170C 80.1902,170.497 77.8568,170.663 75.5,170.5C 69.4888,169.927 63.4888,169.26 57.5,168.5 Z"/></g>
<g><path style="opacity:1" fill="#a0a1a3" d="M 240.5,148.5 C 241.493,156.65 241.826,164.983 241.5,173.5C 252.5,173.5 263.5,173.5 274.5,173.5C 274.5,168.167 274.5,162.833 274.5,157.5C 274.833,157.5 275.167,157.5 275.5,157.5C 275.5,162.833 275.5,168.167 275.5,173.5C 304.833,173.5 334.167,173.5 363.5,173.5C 363.5,171.5 363.5,169.5 363.5,167.5C 364.167,167.5 364.833,167.5 365.5,167.5C 365.5,169.5 365.5,171.5 365.5,173.5C 395.167,173.5 424.833,173.5 454.5,173.5C 454.5,171.5 454.5,169.5 454.5,167.5C 454.833,167.5 455.167,167.5 455.5,167.5C 455.5,169.5 455.5,171.5 455.5,173.5C 485.167,173.5 514.833,173.5 544.5,173.5C 544.5,168.167 544.5,162.833 544.5,157.5C 544.833,157.5 545.167,157.5 545.5,157.5C 545.5,162.833 545.5,168.167 545.5,173.5C 551.167,173.5 556.833,173.5 562.5,173.5C 562.5,174.167 562.5,174.833 562.5,175.5C 455.167,175.5 347.833,175.5 240.5,175.5C 240.5,166.5 240.5,157.5 240.5,148.5 Z"/></g>
<g><path style="opacity:1" fill="#c7c8cb" d="M 365.5,167.5 C 395.167,167.5 424.833,167.5 454.5,167.5C 454.5,169.5 454.5,171.5 454.5,173.5C 424.833,173.5 395.167,173.5 365.5,173.5C 365.5,171.5 365.5,169.5 365.5,167.5 Z"/></g>
<g><path style="opacity:1" fill="#c5c6c9" d="M 292.5,164.5 C 366.5,165.833 440.5,165.833 514.5,164.5C 477.839,165.833 440.839,166.5 403.5,166.5C 366.161,166.5 329.161,165.833 292.5,164.5 Z"/></g>
<g><path style="opacity:1" fill="#c7c8cb" d="M 544.5,157.5 C 544.5,162.833 544.5,168.167 544.5,173.5C 514.833,173.5 485.167,173.5 455.5,173.5C 455.5,171.5 455.5,169.5 455.5,167.5C 475.5,167.5 495.5,167.5 515.5,167.5C 515.5,164.167 515.5,160.833 515.5,157.5C 525.167,157.5 534.833,157.5 544.5,157.5 Z"/></g>
<g><path style="opacity:1" fill="#c6c7ca" d="M 275.5,157.5 C 280.833,157.5 286.167,157.5 291.5,157.5C 291.5,160.833 291.5,164.167 291.5,167.5C 315.5,167.5 339.5,167.5 363.5,167.5C 363.5,169.5 363.5,171.5 363.5,173.5C 334.167,173.5 304.833,173.5 275.5,173.5C 275.5,168.167 275.5,162.833 275.5,157.5 Z"/></g>
<g><path style="opacity:1" fill="#a4a5a9" d="M 199.5,136.5 C 225.046,136.935 233.879,149.268 226,173.5C 212.624,188.092 199.29,188.092 186,173.5C 178.699,156.782 183.199,144.448 199.5,136.5 Z"/></g>
<g><path style="opacity:1" fill="#f8f8f8" d="M 198.5,139.5 C 218.102,137.352 227.602,146.019 227,165.5C 220.185,181.324 209.019,185.49 193.5,178C 180.211,163.145 181.877,150.312 198.5,139.5 Z"/></g>
<g><path style="opacity:1" fill="#2b2b2b" d="M 205.5,172.5 C 207.288,172.215 208.955,172.548 210.5,173.5C 209.332,175.217 207.665,175.884 205.5,175.5C 205.5,174.5 205.5,173.5 205.5,172.5 Z"/></g>
<g><path style="opacity:1" fill="#242223" d="M 192.5,164.5 C 195.275,164.834 195.941,166.167 194.5,168.5C 192.889,167.68 192.222,166.346 192.5,164.5 Z"/></g>
<g><path style="opacity:1" fill="#d8d9dc" d="M 197.5,163.5 C 196.075,152.778 200.741,148.945 211.5,152C 215.203,155.396 216.369,159.563 215,164.5C 210.737,171.157 205.403,172.157 199,167.5C 198.209,166.255 197.709,164.922 197.5,163.5 Z"/></g>
<g><path style="opacity:1" fill="#3a3939" d="M 217.5,160.5 C 218.5,160.5 219.5,160.5 220.5,160.5C 220.884,162.665 220.217,164.332 218.5,165.5C 217.548,163.955 217.215,162.288 217.5,160.5 Z"/></g>
<g><path style="opacity:1" fill="#fafafa" d="M 197.5,163.5 C 198.446,161.868 199.446,160.201 200.5,158.5C 197.879,156.128 198.212,155.462 201.5,156.5C 204.21,155.287 206.876,153.954 209.5,152.5C 210.711,153.274 210.711,154.107 209.5,155C 213.833,163 211.5,166.333 202.5,165C 201.26,162.527 199.593,162.027 197.5,163.5 Z"/></g>
<g><path style="opacity:1" fill="#201f1f" d="M 196.5,148.5 C 199.013,150.013 198.68,151.346 195.5,152.5C 195.167,152.167 194.833,151.833 194.5,151.5C 195.193,150.482 195.859,149.482 196.5,148.5 Z"/></g>
<g><path style="opacity:1" fill="#383737" d="M 209.5,146.5 C 212.588,146.197 214.254,147.53 214.5,150.5C 211.633,150.631 209.967,149.297 209.5,146.5 Z"/></g>
<g><path style="opacity:1" fill="#929292" d="M 757.5,163.5 C 762.975,164.489 768.642,164.822 774.5,164.5C 750.421,166.675 726.421,170.509 702.5,176C 676.169,176.5 649.835,176.667 623.5,176.5C 623.5,175.833 623.833,175.5 624.5,175.5C 627.385,175.806 630.052,175.473 632.5,174.5C 638.833,174.5 645.167,174.5 651.5,174.5C 668.503,174.667 685.503,174.5 702.5,174C 720.905,170.646 739.238,167.146 757.5,163.5 Z"/></g>
<g><path style="opacity:1" fill="#fcfcfc" d="M 240.5,175.5 C 347.833,175.5 455.167,175.5 562.5,175.5C 565.5,175.5 568.5,175.5 571.5,175.5C 575.722,182.729 581.722,187.729 589.5,190.5C 464.167,190.5 338.833,190.5 213.5,190.5C 221.568,188.112 227.901,183.279 232.5,176C 235.146,175.503 237.813,175.336 240.5,175.5 Z"/></g>
</svg>
